<?xml version="1.0" standalone="no"?>
<!DOCTYPE svg PUBLIC "-//W3C//DTD SVG 20010904//EN"
 "http://www.w3.org/TR/2001/REC-SVG-20010904/DTD/svg10.dtd">
<svg version="1.0" xmlns="http://www.w3.org/2000/svg"
 width="900.000000pt" height="961.000000pt" viewBox="0 0 900.000000 961.000000"
 preserveAspectRatio="xMidYMid meet">
<metadata>
Created by potrace 1.16, written by Peter Selinger 2001-2019
</metadata>
<g transform="translate(0.000000,961.000000) scale(0.100000,-0.100000)"
fill="#000000" stroke="none">
<path d="M4214 9339 c-85 -26 -146 -62 -216 -127 -72 -67 -119 -134 -186 -267
-88 -175 -158 -376 -197 -567 -22 -106 -29 -95 123 -201 203 -142 434 -259
606 -308 264 -74 522 13 619 210 28 58 32 76 32 146 0 71 -4 88 -33 148 -19
37 -56 90 -83 117 -60 60 -193 128 -268 137 -49 6 -66 22 -40 39 23 14 89 128
109 190 30 88 29 191 -1 281 -31 94 -106 170 -198 201 -82 28 -183 28 -267 1z
m404 -441 c-2 -7 4 -12 12 -10 9 2 3 -9 -14 -26 -16 -18 -29 -44 -31 -62 -1
-17 -8 -37 -14 -43 -9 -9 -11 -7 -6 8 5 15 4 17 -3 6 -6 -8 -8 -21 -5 -30 4
-14 3 -14 -6 -1 -9 13 -11 13 -11 0 0 -12 -2 -13 -9 -1 -7 11 -10 9 -16 -9 -6
-18 -9 -20 -17 -9 -8 11 -9 10 -5 -3 4 -12 1 -16 -14 -13 -12 3 -17 0 -13 -7
5 -7 2 -8 -6 -3 -9 6 -11 4 -5 -5 5 -8 4 -11 -3 -6 -6 3 -15 -2 -21 -11 -8
-14 -10 -15 -11 -3 0 9 -9 2 -20 -15 -11 -17 -20 -24 -20 -15 -1 9 -6 6 -14
-9 -10 -18 -15 -20 -20 -10 -3 8 -3 3 0 -11 4 -20 3 -22 -6 -10 -9 12 -10 10
-5 -10 5 -19 4 -22 -4 -10 -10 13 -11 13 -11 0 0 -13 -1 -13 -10 0 -9 13 -10
13 -10 0 0 -12 -2 -12 -9 -1 -6 9 -11 10 -15 2 -6 -9 7 -16 17 -8 2 1 11 -4
20 -11 11 -9 17 -10 22 -2 5 8 16 4 34 -12 14 -12 21 -17 14 -9 -6 7 -9 19 -7
26 3 7 1 16 -5 20 -6 3 -11 12 -11 18 1 7 9 1 20 -12 11 -12 18 -27 15 -31 -3
-5 0 -12 6 -16 7 -4 9 -3 6 3 -4 5 7 22 23 38 20 19 27 34 24 51 -5 29 2 31
16 4 8 -15 4 -26 -21 -57 l-32 -38 37 37 c24 25 34 43 29 54 -5 12 -3 15 6 9
10 -6 11 -3 2 13 -8 16 -7 23 6 33 14 12 15 11 9 -8 -4 -12 -2 -24 3 -28 7 -4
8 1 4 12 -3 10 -2 15 2 10 11 -9 45 21 45 40 0 8 4 11 10 8 5 -3 7 0 4 8 -3 8
0 18 7 23 8 5 10 3 4 -7 -5 -8 -4 -11 0 -6 5 4 10 24 12 44 4 37 36 84 57 82
6 0 5 -3 -2 -6 -6 -2 -10 -9 -7 -14 3 -5 -1 -21 -10 -36 -9 -16 -14 -20 -11
-11 3 10 1 20 -5 23 -6 4 -9 -7 -7 -27 2 -35 -36 -102 -82 -143 -12 -11 -26
-29 -32 -40 -8 -15 -8 -17 2 -9 23 23 173 -10 260 -57 77 -41 144 -110 180
-184 29 -59 50 -145 35 -145 -4 0 -57 29 -119 64 -129 74 -262 141 -396 198
-52 23 -101 48 -108 57 -8 10 -11 11 -6 2 6 -11 3 -13 -12 -7 -10 5 -31 13
-46 18 -16 5 -28 14 -28 20 0 5 -4 7 -9 3 -14 -8 -21 9 -10 25 6 11 9 12 9 2
0 -7 5 -10 10 -7 6 4 8 10 6 14 -3 4 8 20 24 36 17 16 26 34 23 44 -4 13 -3
13 5 2 13 -18 45 -24 39 -8 -3 7 -9 11 -15 10 -14 -3 -9 25 8 40 12 10 12 9 2
-5 -8 -10 -9 -19 -3 -22 5 -3 12 0 14 6 3 7 4 -5 2 -26 -3 -26 -1 -36 5 -30
11 11 13 37 7 101 -2 23 -1 40 3 38 4 -3 6 -18 5 -35 -1 -16 3 -37 10 -47 11
-15 13 -12 10 24 -1 24 1 40 6 38 4 -3 6 -17 3 -31 -3 -16 -1 -23 6 -19 5 3
10 14 10 23 1 10 7 5 15 -13 l14 -30 -4 45 c-2 25 -1 39 2 32 2 -6 9 -9 14 -6
6 3 5 11 -2 20 -10 12 -10 15 2 12 8 -2 13 3 11 10 -1 8 2 11 8 7 7 -4 7 -12
2 -18 -4 -7 -7 -18 -6 -24 1 -7 2 -18 3 -24 0 -5 5 -8 11 -4 5 3 7 12 4 20 -3
7 -1 22 5 32 10 15 10 14 5 -8 -3 -17 -1 -30 7 -35 9 -5 11 -2 6 9 -3 9 -2 19
2 22 5 2 7 18 6 34 -1 18 2 29 8 28 6 -1 11 3 12 10 0 6 3 14 7 18 12 12 3
-22 -10 -38 -10 -11 -9 -17 1 -26 14 -11 27 -6 27 11 0 5 -5 6 -12 2 -7 -4 -8
-3 -4 5 4 6 11 9 15 6 5 -2 16 4 25 14 12 13 14 21 6 26 -5 3 -8 11 -5 16 9
13 15 11 13 -3z"/>
<path d="M8061 8948 c-17 -67 -88 -251 -133 -344 l-34 -71 216 -7 c118 -3 231
-9 252 -12 l36 -6 17 58 c20 70 106 288 140 355 14 26 25 51 25 53 0 3 -21 3
-47 -1 -47 -5 -353 11 -423 23 l-36 6 -13 -54z m489 7 c0 -9 -92 -235 -95
-235 -10 0 -142 32 -155 37 -8 3 -26 6 -40 6 -23 0 -23 0 -2 4 14 3 20 9 16
16 -4 7 -3 9 1 4 5 -4 17 5 26 20 17 26 17 28 1 47 -16 20 -16 20 1 7 15 -12
21 -9 19 10 -1 4 8 15 19 25 11 10 19 13 17 7 -2 -6 2 -10 7 -9 6 0 9 5 7 9
-1 5 2 6 7 3 5 -4 16 2 23 13 14 19 14 19 26 1 10 -16 9 -18 -9 -15 -12 3 -17
0 -13 -7 5 -7 2 -8 -6 -3 -9 6 -11 4 -5 -5 5 -8 4 -11 -1 -7 -5 3 -10 -3 -10
-14 0 -18 2 -17 19 6 16 22 22 24 35 13 10 -9 13 -9 9 -1 -13 21 28 37 51 19
9 -7 12 -5 10 5 -2 8 3 13 10 11 8 -1 11 2 8 7 -4 5 0 12 6 14 8 3 6 6 -4 6
-10 1 -18 -5 -19 -11 0 -10 -2 -10 -6 0 -5 13 -25 17 -20 5 1 -5 -2 -10 -7
-13 -5 -3 -10 2 -11 10 -2 12 8 16 41 17 24 1 44 0 44 -2z"/>
<path d="M1440 8954 c-46 -20 -77 -50 -103 -99 -33 -63 -28 -145 17 -290 42
-138 60 -247 53 -322 -3 -29 -4 -53 -3 -53 2 0 36 15 77 34 93 42 132 51 297
70 140 17 181 29 236 71 93 71 102 226 19 309 -56 56 -131 74 -223 53 -34 -8
-32 -5 48 73 46 45 82 83 80 85 -2 1 -28 19 -59 38 l-56 36 -17 -54 c-9 -30
-27 -78 -40 -107 l-24 -53 -7 30 c-23 101 -54 146 -120 176 -48 22 -127 24
-175 3z"/>
<path d="M6306 8786 c-147 -55 -217 -254 -151 -428 6 -14 2 -15 -37 -6 -55 13
-161 2 -214 -21 -55 -25 -121 -85 -146 -135 -29 -55 -29 -145 0 -208 25 -57
103 -138 161 -167 140 -72 395 -71 681 0 47 12 92 25 101 30 35 18 59 331 40
511 -18 169 -60 268 -146 347 -83 77 -203 109 -289 77z m-21 -188 c0 -90 4
-212 9 -273 5 -60 10 -128 11 -150 0 -22 4 -45 8 -52 4 -6 3 -15 -3 -18 -6 -4
-10 -3 -9 2 1 4 0 11 -1 16 -1 4 -3 13 -4 20 -1 6 -7 11 -14 9 -7 -1 -11 1
-10 5 0 5 -2 16 -6 25 -4 10 -6 23 -3 30 3 7 6 2 7 -12 1 -23 2 -23 9 -5 5 12
3 25 -6 33 -7 7 -13 19 -13 25 0 7 7 4 15 -7 13 -18 14 -18 12 2 0 11 -5 18
-11 15 -5 -4 -7 1 -3 10 3 9 2 19 -4 22 -5 4 -8 3 -7 -2 4 -16 -14 -53 -23
-47 -5 3 -6 11 -2 17 12 19 12 36 1 44 -6 3 -8 1 -4 -5 3 -6 2 -13 -4 -17 -6
-4 -8 -10 -5 -15 3 -5 1 -11 -4 -14 -5 -3 -11 1 -15 9 -3 8 -1 17 4 20 6 4 10
12 10 18 0 7 -4 6 -10 -3 -5 -8 -10 -13 -11 -10 -2 16 -11 41 -30 95 -28 80
-24 198 11 265 21 42 82 110 98 110 4 0 7 -73 7 -162z m-151 -269 c31 -7 54
-14 51 -17 -3 -3 0 -11 6 -19 6 -7 8 -13 5 -13 -4 0 -2 -9 4 -20 6 -11 15 -18
21 -15 5 4 12 -1 15 -10 6 -14 9 -14 16 -3 7 9 8 7 3 -7 -9 -23 -9 -31 -1 -64
3 -13 3 -21 0 -18 -3 3 -6 9 -6 14 0 4 -4 16 -10 26 -9 18 -11 18 -29 1 -10
-9 -16 -21 -12 -27 4 -6 1 -7 -6 -2 -9 5 -7 13 8 29 33 35 24 43 -11 10 -18
-16 -26 -21 -18 -11 8 11 15 28 17 39 3 17 1 19 -12 8 -8 -7 -13 -16 -10 -20
3 -4 -3 -14 -13 -21 -14 -11 -15 -11 -5 0 9 10 7 21 -6 45 -21 37 -33 78 -20
70 5 -3 9 -15 9 -26 0 -27 7 -20 12 11 2 18 -2 25 -19 27 -20 3 -22 1 -16 -29
3 -17 10 -38 16 -44 5 -7 6 -13 2 -13 -4 0 -1 -8 6 -17 11 -16 11 -16 -1 -5
-8 7 -15 17 -15 23 0 5 -4 9 -10 9 -5 0 -10 -4 -10 -9 0 -5 -3 -12 -7 -16 -3
-4 -5 0 -4 9 1 8 5 19 9 22 4 4 7 19 7 33 0 20 -3 22 -9 11 -6 -8 -8 -17 -5
-21 2 -4 -4 -13 -14 -20 -15 -12 -16 -12 -5 2 7 9 9 19 5 23 -4 4 -7 18 -7 29
0 15 -7 23 -24 25 -14 2 -21 0 -17 -6 4 -6 2 -14 -4 -17 -8 -5 -8 -11 0 -20 8
-10 8 -15 -1 -21 -7 -4 -9 -3 -5 4 3 6 2 14 -4 17 -8 5 -7 12 2 23 11 13 10
15 -4 9 -10 -3 -20 -1 -24 5 -4 6 -3 8 2 5 6 -3 16 -2 24 4 20 12 55 11 124
-2z"/>
<path d="M2459 8380 c-14 -4 -44 -20 -66 -34 -159 -106 -148 -373 19 -459 l28
-14 -55 -12 c-68 -15 -130 -61 -170 -125 -38 -63 -47 -162 -20 -233 46 -121
183 -198 304 -172 109 23 192 113 208 224 l7 50 22 -103 c12 -56 27 -147 34
-202 l12 -99 52 20 c99 39 161 63 165 66 3 2 -7 16 -21 31 -44 49 -198 281
-198 300 0 3 10 -4 23 -16 70 -66 203 -82 296 -35 88 43 139 130 140 238 2
213 -235 344 -412 229 l-39 -25 9 23 c4 13 8 55 8 93 -1 58 -5 79 -30 124 -31
56 -88 106 -148 128 -36 13 -129 15 -168 3z"/>
<path d="M8260 8001 c0 -24 -133 -149 -219 -205 -151 -100 -191 -149 -191
-238 0 -53 33 -122 71 -149 71 -51 153 -48 226 8 25 19 44 29 41 22 -3 -8 -15
-45 -28 -84 -12 -38 -27 -75 -32 -82 -10 -12 6 -16 90 -26 30 -3 33 -2 28 17
-4 12 -9 57 -13 101 l-6 79 34 -38 c38 -44 99 -76 144 -76 103 0 197 110 181
212 -10 62 -29 91 -136 205 -70 75 -111 129 -140 185 -39 74 -50 89 -50 69z"/>
<path d="M7184 7804 c22 -57 13 -530 -13 -679 l-7 -40 -7 48 c-16 114 -118
258 -228 324 -228 137 -545 35 -663 -213 l-29 -59 -13 57 c-43 185 -202 328
-364 328 -183 0 -345 -178 -368 -405 l-7 -64 -45 28 c-89 55 -157 75 -260 75
-76 0 -107 -5 -155 -24 -78 -31 -153 -105 -180 -180 -25 -68 -25 -183 0 -255
26 -75 98 -176 162 -230 144 -118 434 -218 756 -260 65 -8 127 -15 138 -15 51
0 236 375 300 609 l22 82 23 -59 c29 -78 61 -127 119 -184 91 -90 245 -147
357 -133 l43 6 -25 -17 c-56 -39 -138 -133 -167 -192 -70 -140 -70 -275 1
-443 6 -14 1 -15 -43 -6 -56 12 -120 -6 -170 -49 -86 -72 -81 -226 11 -298
l33 -26 -75 21 c-41 12 -104 32 -139 45 -35 13 -65 23 -66 22 -2 -2 -7 -40
-12 -86 l-9 -84 35 7 c66 13 166 24 211 24 l45 0 -30 -13 c-17 -7 -45 -29 -62
-49 -77 -88 -63 -210 32 -282 70 -54 168 -55 238 -1 57 44 81 89 81 152 l0 52
28 -23 c65 -55 170 -59 240 -9 87 61 111 183 52 266 -16 24 -48 53 -69 65 -52
29 -135 31 -188 4 l-38 -19 8 21 c4 12 8 43 8 68 l0 45 44 -28 c79 -49 148
-70 241 -70 367 -3 601 375 435 703 l-26 50 39 -26 c229 -151 546 -56 675 203
l42 85 0 127 0 126 -39 80 c-51 103 -126 178 -226 227 -193 95 -427 37 -573
-141 -15 -19 -27 -32 -27 -29 0 2 30 73 66 158 76 177 167 360 219 438 20 29
34 55 33 57 -2 1 -89 23 -193 49 -105 25 -199 48 -209 51 -15 5 -18 3 -12 -12z
m-1344 -257 c0 -2 -22 -53 -49 -113 -53 -118 -145 -380 -181 -512 -12 -45 -26
-82 -31 -82 -5 0 -6 -15 -4 -32 4 -29 4 -30 -4 -8 -5 14 -10 22 -11 18 -6 -21
-5 -34 3 -46 7 -9 6 -17 -3 -25 -10 -9 -11 -9 -6 1 4 6 4 18 -1 25 -11 18 -12
36 -2 43 5 3 9 10 9 16 0 6 -9 3 -20 -7 -11 -10 -17 -21 -15 -26 3 -4 1 -10
-4 -13 -15 -10 -6 22 12 42 18 20 24 57 7 47 -6 -4 -8 -10 -5 -14 2 -5 -8 -19
-23 -32 -15 -14 -20 -16 -12 -5 16 21 21 64 8 72 -8 5 -9 1 -12 -36 -1 -26
-21 -46 -31 -31 -3 7 -1 10 6 9 7 -2 13 5 14 15 0 9 -4 16 -10 15 -5 -2 -9 -7
-7 -11 1 -5 -2 -6 -8 -2 -6 3 -7 12 -3 18 4 7 9 20 10 31 3 16 1 17 -12 6 -8
-7 -12 -17 -8 -24 4 -6 -1 -5 -10 3 -10 8 -16 19 -14 25 3 6 0 19 -5 29 -9 18
-11 18 -36 -5 l-27 -23 23 26 22 26 -20 18 c-18 17 -19 20 -5 41 8 13 15 31
16 41 1 12 3 10 9 -7 7 -23 8 -23 9 -3 1 12 6 25 11 28 13 8 13 3 0 -30 -6
-16 -6 -24 0 -20 5 3 7 -4 5 -16 -4 -18 -2 -19 12 -7 14 11 16 11 8 -1 -6 -10
-4 -12 5 -6 9 6 11 4 5 -5 -5 -8 -4 -11 3 -6 7 4 9 -1 7 -15 -4 -18 -2 -19 12
-7 14 11 16 11 8 -2 -8 -13 -7 -13 8 -1 11 9 17 10 17 2 0 -6 -4 -11 -10 -11
-5 0 -9 -10 -9 -22 1 -21 2 -21 7 -3 l5 20 9 -20 c8 -19 8 -19 4 2 -2 12 2 30
10 40 13 16 14 15 8 -12 -3 -16 -7 -36 -10 -43 -2 -8 1 -10 8 -6 6 4 8 3 5 -3
-4 -6 0 -16 8 -23 8 -7 15 -21 15 -32 0 -10 4 -17 10 -13 5 3 6 13 3 22 -4 10
-2 14 5 9 7 -4 9 2 6 21 -3 14 -7 30 -9 34 -3 4 2 12 10 19 8 7 15 17 15 23 0
6 -6 3 -13 -8 -13 -17 -15 -17 -30 5 -8 12 -14 31 -12 41 2 10 -1 18 -8 16 -7
-1 -10 5 -9 13 2 8 0 11 -5 7 -4 -5 -8 -12 -8 -15 -2 -23 -18 -51 -26 -46 -6
4 -6 11 1 19 7 8 9 19 6 24 -4 5 -2 12 4 16 5 3 10 34 10 68 0 200 116 378
280 428 27 8 50 11 50 6z m882 -1220 c-12 -7 -20 -16 -16 -20 4 -4 12 -2 19 3
8 7 12 5 12 -5 0 -7 -3 -13 -6 -12 -3 1 -6 -2 -6 -8 0 -5 3 -9 6 -8 3 1 6 -4
6 -12 0 -8 -3 -13 -6 -12 -3 1 -7 -2 -7 -8 -1 -5 1 -9 5 -8 4 1 8 -4 8 -11 0
-7 -6 -13 -13 -13 -7 0 -11 4 -8 8 2 4 0 10 -6 14 -6 4 -10 -7 -10 -27 0 -26
3 -30 11 -18 9 13 10 13 6 -1 -3 -9 0 -22 6 -28 9 -9 9 -12 1 -9 -7 2 -11 -1
-10 -7 0 -5 5 -9 10 -7 5 2 4 -4 -4 -12 -14 -18 -21 -21 -17 -7 1 5 -2 9 -8
10 -8 1 -12 -32 -5 -41 5 -8 7 -39 2 -33 -4 4 -7 11 -7 16 0 11 -15 12 -16 2
0 -5 -6 -15 -13 -23 -8 -8 -12 -23 -11 -32 2 -9 -4 -23 -13 -30 -15 -11 -15
-11 -4 3 10 13 9 19 -5 30 -15 12 -16 12 -11 -2 3 -9 2 -22 -3 -30 -7 -12 -9
-12 -10 1 -1 8 -1 19 0 24 1 5 -2 12 -8 15 -6 4 -7 12 -1 21 8 12 10 11 10 -5
0 -18 2 -17 13 5 8 14 18 24 24 23 6 -1 10 9 8 22 -1 15 2 22 8 18 6 -4 7 -1
2 7 -6 9 -4 11 5 5 9 -6 11 -4 5 5 -5 8 -4 11 1 7 6 -3 10 5 10 18 0 13 -3 22
-6 20 -3 -2 -4 13 -1 33 l5 37 7 -35 c6 -33 7 -33 6 11 0 25 3 51 7 57 4 7 4
12 -1 13 -4 0 -16 2 -25 4 -10 2 -16 -2 -15 -8 1 -7 -4 -11 -11 -9 -8 1 -11
-2 -7 -8 3 -6 10 -8 15 -5 12 7 16 -12 12 -51 -5 -41 -21 -36 -17 6 1 16 -1
28 -5 25 -4 -2 -6 -26 -4 -52 1 -30 -3 -54 -11 -63 -13 -15 -15 -19 -15 -41 0
-5 -5 -7 -10 -4 -6 4 -9 1 -8 -7 2 -7 -2 -12 -8 -11 -9 2 -11 -28 -4 -47 4 -9
7 -25 8 -43 1 -10 6 -15 12 -12 6 4 7 -1 3 -11 -5 -13 -3 -15 7 -9 9 5 11 4 6
-4 -13 -20 -25 -2 -46 65 -20 66 -26 162 -13 224 5 29 15 37 87 71 77 36 126
52 78 26z"/>
<path d="M4045 7488 c-22 -6 -41 -12 -43 -13 -2 -1 6 -18 17 -36 11 -19 32
-60 46 -93 l26 -58 -30 25 c-80 67 -193 31 -220 -69 -28 -103 75 -208 171
-175 17 6 32 11 34 11 2 0 -2 -14 -8 -30 -40 -116 101 -226 207 -160 72 44 87
151 29 211 -27 28 -27 29 -5 29 62 0 122 60 129 128 8 90 -48 152 -140 152
-53 0 -101 -33 -124 -85 -12 -27 -13 -22 -14 73 0 114 3 110 -75 90z"/>
<path d="M3315 6539 c-179 -27 -330 -130 -398 -268 -28 -59 -31 -76 -31 -151
0 -99 20 -150 87 -226 88 -100 216 -154 364 -154 64 0 84 -3 80 -12 -91 -206
-98 -325 -29 -471 36 -77 90 -132 162 -166 48 -23 67 -26 150 -25 74 0 107 5
149 22 105 44 206 134 272 241 100 165 176 561 167 866 l-3 110 -105 47 c-299
134 -679 216 -865 187z m-314 -504 c134 -46 384 -106 587 -141 85 -14 102 -20
97 -33 -3 -11 -1 -10 10 3 11 15 17 16 28 8 8 -7 18 -8 23 -4 5 4 0 -4 -12
-18 -22 -27 -24 -37 -9 -60 7 -13 6 -13 -7 -2 -9 7 -15 22 -13 32 2 11 0 22
-4 25 -13 7 -19 -43 -7 -55 5 -5 11 -22 12 -35 0 -14 -2 -23 -5 -19 -3 3 -6
14 -6 25 0 10 -4 19 -10 19 -13 0 -14 -41 -1 -60 8 -13 8 -13 -4 -2 -8 7 -15
22 -15 34 0 12 -7 22 -17 24 -13 1 -18 -4 -18 -19 0 -18 2 -19 11 -7 9 13 10
13 6 0 -2 -8 5 -26 17 -40 17 -20 15 -20 -11 4 -18 16 -33 38 -35 50 -3 18 -4
19 -10 4 -5 -12 1 -28 18 -47 15 -18 21 -32 14 -36 -6 -4 -9 -2 -8 3 2 6 -1
10 -7 10 -5 0 -9 -5 -7 -10 1 -6 -2 -16 -8 -22 -5 -7 -8 -15 -5 -18 3 -3 -3
-11 -12 -19 -16 -12 -17 -12 -7 1 6 8 10 23 9 33 -2 9 1 15 6 11 5 -3 9 -1 9
5 0 16 -18 22 -27 9 -4 -7 -8 -23 -9 -36 0 -12 -11 -33 -23 -45 -11 -13 -18
-27 -14 -32 5 -4 2 -5 -5 -1 -9 6 -6 15 13 38 23 27 26 56 4 42 -5 -3 -7 -9
-4 -13 2 -5 -7 -18 -20 -31 -18 -17 -22 -27 -14 -36 7 -8 7 -14 -1 -19 -6 -3
-8 -10 -5 -15 3 -5 1 -11 -4 -14 -10 -7 -9 13 1 29 3 6 -5 24 -18 40 -26 33
-33 23 -9 -12 10 -14 12 -24 5 -28 -6 -4 -7 -11 -4 -17 4 -7 2 -8 -5 -4 -8 6
-9 12 -2 20 6 7 8 16 4 19 -12 12 -32 -27 -21 -40 6 -7 7 -13 3 -13 -4 0 -1
-8 6 -17 11 -16 11 -16 -1 -5 -8 7 -15 18 -15 25 -1 7 -6 11 -12 10 -6 -1 -10
5 -8 15 4 29 -9 39 -16 12 l-7 -25 -2 25 c-2 14 -9 -6 -16 -45 l-13 -70 5 64
c6 69 41 175 74 221 11 15 20 31 20 34 0 3 -38 2 -84 -1 -152 -11 -271 27
-370 118 -65 60 -130 179 -98 179 5 0 42 -11 83 -25z"/>
<path d="M3575 5880 c-4 -6 -11 -8 -16 -4 -5 3 -8 0 -7 -8 2 -7 -2 -12 -8 -11
-6 1 -11 -3 -12 -10 -4 -29 -10 -72 -11 -77 -1 -3 -6 2 -12 10 -8 12 -9 11 -4
-6 7 -26 -3 -56 -17 -48 -5 3 -5 11 2 19 8 10 8 15 -2 21 -7 4 -10 3 -5 -1 4
-5 -1 -17 -10 -27 -13 -15 -14 -19 -3 -16 10 2 17 -9 21 -32 6 -34 6 -34 8 -5
2 36 16 62 25 47 3 -6 2 -13 -4 -17 -5 -3 -9 -18 -9 -33 l1 -27 8 30 c7 27 8
26 7 -13 -2 -38 -3 -40 -16 -25 -12 16 -13 15 -8 -12 l6 -30 -14 30 c-8 17
-15 37 -15 45 -1 10 -4 9 -9 -4 -5 -13 -10 -16 -14 -9 -4 6 0 18 8 27 14 13
13 15 -4 13 -12 -1 -17 -6 -13 -16 3 -9 1 -12 -5 -8 -8 5 -10 -4 -7 -25 4 -25
2 -29 -5 -18 -10 13 -11 13 -12 0 -1 -8 -1 -21 0 -29 2 -7 -2 -11 -7 -7 -5 3
-9 -1 -9 -9 0 -8 3 -13 5 -10 9 9 32 -17 26 -29 -3 -6 2 -2 10 8 9 11 14 28
11 37 -8 26 12 32 28 9 14 -20 14 -19 38 6 13 14 23 27 22 30 -2 2 -2 7 -2 12
1 4 1 15 0 24 -1 9 5 30 14 45 15 27 15 27 10 3 -5 -20 -4 -22 5 -10 10 13 11
12 6 -3 -3 -10 -6 -22 -6 -25 0 -4 -5 0 -10 8 -8 12 -10 11 -10 -7 0 -12 5
-25 12 -29 6 -4 8 -3 4 4 -3 6 -1 14 5 17 6 4 14 17 19 29 7 17 9 18 9 3 1
-10 6 -15 11 -12 7 4 5 14 -4 27 -19 27 -5 58 24 53 13 -3 20 2 20 12 0 12 -3
13 -14 4 -11 -9 -16 -9 -22 0 -5 8 -3 9 6 4 9 -6 11 -4 5 5 -6 9 -4 11 5 5 9
-6 11 -4 5 5 -6 9 -4 11 5 5 9 -6 11 -4 5 5 -5 9 -4 11 3 6 8 -4 10 -2 6 8 -3
8 2 16 13 19 14 4 14 5 -4 6 -15 1 -23 -5 -24 -16 -1 -12 -4 -10 -9 7 -8 25
-8 25 -9 2 -1 -13 -5 -21 -11 -17 -5 3 -7 13 -4 23 5 14 4 15 -5 2 -10 -13
-15 -8 -12 13 2 10 -7 9 -14 -3z"/>
<path d="M4926 6368 c-92 -171 -390 -588 -558 -782 -37 -44 -68 -82 -68 -85 0
-3 35 -46 77 -96 161 -191 400 -526 528 -742 l49 -82 20 32 c190 312 398 602
582 813 l62 70 -75 90 c-200 239 -329 422 -578 818 -8 13 -15 7 -39 -36z m167
-207 c64 -97 136 -201 158 -232 l40 -56 -122 -121 c-68 -66 -126 -119 -130
-116 -4 2 -6 13 -4 24 2 12 0 18 -5 15 -9 -6 -8 -24 3 -42 5 -8 -5 -27 -28
-50 -32 -33 -66 -52 -64 -35 1 4 0 9 -1 12 -1 3 -3 21 -5 40 -1 19 -1 29 2 22
3 -6 9 -9 14 -6 6 3 5 11 -2 20 -9 11 -15 11 -25 3 -8 -6 -11 -16 -7 -22 4 -6
1 -7 -6 -2 -9 5 -10 10 -2 18 7 7 7 16 0 29 -5 10 -7 18 -3 18 3 0 1 6 -5 14
-6 8 -10 20 -9 27 2 8 -3 13 -10 11 -8 -1 -11 2 -7 8 3 6 11 8 16 5 5 -4 9 -2
9 3 0 19 -14 21 -34 5 -15 -14 -18 -14 -8 -2 6 9 8 20 4 24 -4 5 -1 5 6 1 6
-4 12 -3 12 2 0 16 -13 22 -25 12 -8 -7 -12 -5 -12 4 0 8 8 13 17 11 13 -2 16
5 16 41 -1 37 -3 42 -13 28 -6 -8 -10 -25 -8 -36 3 -11 2 -18 -2 -14 -4 3 -16
-2 -27 -11 -18 -16 -18 -15 1 8 18 20 20 28 10 39 -6 7 -7 10 -2 7 6 -3 16 3
23 14 14 21 3 26 -17 7 -11 -11 -12 -10 -5 2 12 21 12 33 0 50 -10 13 -9 13 7
1 10 -8 17 -9 17 -3 0 6 -4 13 -9 16 -10 7 -9 82 2 92 4 4 -1 16 -10 26 -14
15 -14 19 -3 16 8 -2 14 3 12 10 -1 8 2 11 8 7 8 -5 8 -11 0 -20 -7 -8 -7 -16
-2 -19 6 -3 13 1 16 10 9 23 -3 56 -17 48 -8 -5 -8 -3 0 6 10 11 10 17 -3 31
-10 12 -12 19 -4 24 6 3 9 3 8 -2 -2 -4 2 -9 7 -10 12 -4 14 18 3 33 -4 6 -2
11 7 11 8 0 12 -4 9 -8 -2 -4 0 -10 6 -14 6 -4 8 -10 6 -14 -3 -4 -1 -13 5
-21 7 -12 9 -10 9 7 0 12 -4 32 -9 45 -12 31 -12 38 -3 38 4 0 8 -4 8 -10 1
-5 3 -18 4 -27 1 -13 4 -11 9 7 6 17 3 31 -8 45 -15 18 -15 19 1 7 14 -11 18
-10 28 7 6 12 8 21 5 21 -15 0 -20 -3 -17 -12 1 -5 -2 -7 -8 -3 -6 4 -6 12 2
25 11 17 13 17 26 2 13 -16 13 -16 8 1 -3 11 -2 16 4 12 6 -3 10 -2 10 4 0 5
-4 13 -10 16 -5 3 -10 12 -9 18 0 7 6 4 12 -7 7 -10 65 -98 130 -195z"/>
<path d="M4955 6287 c-11 -17 -20 -34 -21 -37 0 -3 -4 -26 -8 -53 -9 -50 -22
-68 -32 -43 -3 9 -10 14 -14 11 -9 -6 -8 -17 4 -53 5 -16 2 -31 -10 -50 -21
-30 -26 -90 -11 -110 7 -9 7 -16 -1 -24 -8 -8 -7 -15 5 -24 12 -8 18 -28 18
-67 1 -30 6 -62 13 -69 6 -8 9 -25 7 -38 -2 -13 -1 -28 4 -34 9 -11 11 -17 11
-38 0 -6 3 -8 7 -5 3 4 15 0 25 -9 14 -14 15 -20 6 -32 -17 -20 -18 -39 -4
-51 22 -18 58 43 60 101 1 27 -1 51 -5 54 -3 2 -6 -4 -6 -14 0 -50 -4 -73 -11
-68 -5 3 -8 28 -6 56 2 45 0 49 -12 33 -16 -22 -18 -10 -3 19 7 13 7 18 1 14
-10 -6 -24 22 -21 40 3 21 -2 26 -16 14 -17 -14 -21 0 -4 17 8 8 8 17 1 30 -6
11 -7 25 -2 33 5 8 5 21 -1 31 -11 22 -12 32 0 25 5 -3 7 8 6 24 -1 17 1 33 6
36 5 3 5 13 1 22 -11 22 -9 42 3 41 6 -1 9 -5 7 -11 -1 -5 2 -7 8 -3 6 3 7 12
3 18 -16 25 -21 77 -8 74 6 -1 9 -5 8 -9 -5 -13 4 -9 17 8 8 8 9 14 3 12 -6
-2 -11 2 -11 7 0 6 5 9 12 7 7 -2 7 1 -1 9 -19 20 -15 33 5 18 15 -12 16 -12
4 2 -10 13 -10 18 1 28 8 6 18 7 23 3 4 -4 3 0 -3 8 -6 8 -12 20 -13 25 -1 6
-7 9 -12 7 -6 -2 -8 3 -5 11 12 32 -10 35 -28 4z m21 -4 c0 -10 4 -17 11 -16
16 3 10 -23 -11 -46 -10 -11 -15 -24 -12 -29 3 -5 -3 -17 -13 -27 -18 -15 -20
-42 -7 -64 3 -5 -1 -14 -8 -21 -14 -11 -14 -39 -1 -59 3 -5 1 -12 -4 -15 -5
-4 -8 -14 -6 -24 1 -9 -2 -22 -7 -29 -6 -7 -6 -19 1 -30 5 -11 6 -25 1 -33 -5
-8 -4 -22 1 -33 7 -13 7 -23 -1 -32 -15 -18 -3 -40 13 -26 9 6 13 3 14 -12 1
-12 4 -35 6 -52 1 -16 8 -29 13 -28 6 1 10 -12 9 -30 -2 -35 12 -60 27 -51 15
9 -8 -30 -26 -45 -13 -11 -15 -10 -11 8 2 12 6 25 9 30 3 4 -6 19 -19 31 -14
13 -25 32 -25 42 0 11 -4 17 -9 14 -4 -3 -7 7 -5 21 1 15 -2 36 -9 47 -6 12
-11 41 -12 66 0 25 -5 52 -10 60 -5 8 -8 27 -7 43 1 16 -1 26 -5 24 -5 -3 -8
12 -8 33 0 21 2 36 4 34 10 -9 31 60 26 85 l-5 26 10 -24 c6 -14 8 -32 4 -40
-9 -22 -13 -181 -4 -186 4 -2 5 14 3 36 -2 23 -1 39 4 36 4 -3 8 12 8 33 0 21
-3 36 -7 33 -5 -2 -8 3 -8 12 0 10 5 13 12 9 6 -4 8 -3 4 4 -3 6 -2 22 4 37 7
17 7 24 0 20 -6 -3 -10 1 -10 9 0 8 4 17 9 20 5 3 12 27 17 53 4 27 8 50 9 53
2 9 26 50 29 50 2 0 3 -8 2 -17z"/>
<path d="M5665 4587 c-95 -24 -391 -74 -492 -83 -46 -3 -83 -8 -83 -9 0 -2 31
-54 69 -117 67 -111 163 -294 214 -409 l25 -57 113 28 c100 24 274 52 476 77
l62 8 -65 105 c-36 58 -107 188 -157 290 l-92 185 -70 -18z m-36 -324 c-4 -23
2 -43 11 -38 6 4 8 10 6 14 -4 7 44 7 52 1 8 -7 47 -2 45 7 -1 5 5 10 13 10
12 0 12 -3 -1 -17 -24 -27 -17 -36 9 -11 l23 22 -1 -22 c0 -12 5 -24 12 -26 8
-3 10 1 6 14 -5 15 -3 14 9 -3 11 -14 25 -20 43 -18 18 2 23 -1 16 -8 -6 -6
-8 -18 -5 -27 4 -13 3 -14 -5 -1 -6 8 -8 18 -6 22 3 4 0 8 -5 8 -13 0 -14 -10
-1 -30 6 -9 5 -20 -3 -30 -10 -13 -10 -13 5 -2 14 11 18 10 27 -6 6 -11 8 -22
6 -26 -3 -3 -2 -4 2 -1 11 8 11 45 0 38 -6 -4 -7 -1 -2 7 5 9 4 11 -3 6 -13
-8 -6 20 9 40 5 6 5 15 1 19 -4 5 -1 5 6 1 10 -6 10 -11 1 -22 -13 -16 -5 -44
12 -44 8 0 9 4 0 13 -8 10 -7 14 4 14 7 0 13 -5 12 -11 -1 -6 4 -10 11 -9 6 2
11 -3 10 -10 -2 -6 3 -11 10 -9 8 1 11 -1 9 -5 -3 -5 7 -26 22 -49 l28 -40
-26 -2 c-14 -1 -90 -11 -169 -23 -79 -12 -144 -20 -146 -18 -11 15 -54 174
-49 182 3 6 1 7 -5 3 -7 -4 -12 -3 -12 3 0 5 -3 17 -6 25 -5 12 -2 15 10 10
14 -5 15 -2 7 19 -5 14 -7 28 -4 31 8 8 13 8 12 -1z"/>
<path d="M4321 4578 c-48 -30 -251 -120 -347 -154 l-82 -28 109 -114 c61 -63
137 -149 171 -192 l60 -79 90 45 c98 49 279 125 345 144 l42 13 -103 104 c-56
57 -133 144 -171 193 -39 49 -72 89 -75 88 -3 0 -20 -9 -39 -20z m65 -247 c-3
-5 1 -14 10 -21 8 -7 13 -19 10 -26 -3 -7 -2 -15 2 -18 11 -7 13 36 2 49 -6 8
-5 12 3 12 8 0 14 -5 15 -11 2 -26 9 -46 17 -53 4 -4 6 -3 2 2 -3 6 2 19 10
30 15 20 15 19 10 -3 -3 -13 -3 -21 0 -18 4 3 16 -2 27 -11 13 -12 17 -12 9
-3 -7 9 -8 23 -2 38 11 29 15 28 14 -5 0 -21 5 -28 20 -28 11 0 26 -6 33 -15
11 -13 11 -13 6 1 -3 10 0 20 6 24 8 5 6 13 -7 28 l-18 22 22 -19 c12 -10 21
-23 20 -28 -1 -6 4 -13 12 -16 9 -3 11 0 6 9 -5 8 7 1 26 -16 19 -16 35 -30
37 -31 1 -1 -48 -22 -110 -48 -62 -26 -118 -49 -124 -52 -6 -3 -31 25 -54 63
-24 37 -49 78 -57 90 -11 16 -11 23 -2 29 7 4 9 3 5 -4 -3 -6 -2 -13 3 -16 5
-4 12 2 15 11 3 13 4 11 3 -4 -1 -12 1 -21 4 -20 3 1 14 -5 25 -13 17 -14 18
-14 6 2 -9 11 -10 18 -2 23 6 3 7 11 3 18 -4 7 -9 4 -14 -9 -6 -14 -7 -11 -4
11 4 36 4 35 11 35 3 0 3 -4 0 -9z"/>
<path d="M6815 4533 c-76 -13 -203 -12 -267 3 l-28 6 17 -43 c13 -35 17 -83
19 -226 3 -203 9 -229 70 -282 111 -98 287 -3 272 148 -2 21 0 37 3 35 4 -2
28 -35 55 -74 l48 -71 41 42 c22 23 36 43 30 45 -5 2 -44 23 -85 47 l-75 42
57 5 c63 6 100 27 136 80 41 62 24 161 -37 213 -58 48 -116 55 -256 30z"/>
<path d="M5979 3657 c-96 -27 -176 -93 -233 -189 -41 -70 -64 -185 -81 -408
-20 -267 -53 -405 -137 -574 l-30 -59 48 8 c79 11 290 6 382 -10 48 -8 158
-35 244 -60 268 -77 372 -81 502 -22 182 83 263 312 176 496 -57 121 -168 194
-315 208 l-80 8 70 33 c95 45 221 97 273 113 24 7 41 17 39 23 -3 6 -35 54
-72 108 l-68 96 -30 -41 c-17 -23 -81 -94 -143 -157 l-113 -115 20 70 c55 191
-27 374 -201 452 -67 30 -182 39 -251 20z"/>
<path d="M4512 3364 c-64 -32 -108 -83 -127 -148 -19 -63 -19 -99 0 -162 28
-95 116 -167 221 -182 l47 -7 -41 -29 c-59 -40 -96 -118 -96 -201 0 -198 210
-326 385 -236 63 33 78 49 110 116 33 68 38 135 14 192 -8 20 -14 38 -12 39 6
6 169 -210 199 -263 l29 -52 79 87 78 86 -82 41 c-82 42 -256 145 -256 152 0
2 10 1 22 -3 46 -14 134 -6 179 16 101 51 144 119 144 230 -1 116 -47 191
-151 243 -116 59 -285 4 -340 -110 l-18 -38 -8 44 c-29 168 -221 262 -376 185z"/>
<path d="M6157 1934 c-18 -10 -37 -35 -52 -67 l-22 -52 -23 62 c-24 66 -25 67
-75 29 -19 -14 -19 -16 28 -64 l48 -49 -48 4 c-154 13 -197 -198 -50 -251 23
-8 85 -20 137 -26 52 -6 119 -21 150 -33 l55 -23 2 76 c1 47 11 106 27 159 30
97 32 128 12 176 -28 66 -122 95 -189 59z"/>
<path d="M4970 1209 c-79 -24 -130 -86 -130 -158 0 -74 82 -141 173 -141 32 0
31 2 12 -43 -20 -49 -19 -93 5 -142 48 -100 171 -101 256 -1 41 48 69 133 84
256 17 142 18 138 -46 166 -125 55 -285 84 -354 63z m115 -236 c50 -9 94 -20
98 -24 5 -3 -9 -3 -31 1 -30 5 -39 4 -36 -5 3 -7 15 -11 28 -10 14 2 23 -2 23
-11 0 -10 -4 -11 -11 -4 -15 15 -30 12 -17 -4 8 -10 9 -16 1 -21 -6 -4 -9 -3
-8 2 2 4 -1 8 -7 8 -5 0 -9 -8 -9 -18 1 -13 -2 -15 -9 -8 -14 14 -18 43 -5 35
7 -5 8 -2 3 6 -6 9 -4 11 6 5 12 -8 12 -6 0 8 -16 20 -22 22 -18 5 1 -7 -3
-12 -10 -11 -16 4 -8 -35 14 -61 l18 -21 -22 19 c-27 23 -30 11 -5 -18 l17
-21 -24 20 -24 20 6 -20 7 -20 -16 20 c-16 20 -16 20 -11 -2 3 -13 2 -25 -2
-27 -13 -8 -10 37 5 65 20 40 18 46 -14 41 -46 -6 -113 17 -149 53 -56 56 -45
66 40 38 39 -13 113 -31 162 -40z"/>
<path d="M6040 495 c-52 -23 -131 -55 -176 -69 l-81 -27 9 -61 c4 -33 9 -118
11 -189 2 -110 4 -129 17 -125 8 2 58 23 110 46 52 23 126 52 164 64 l68 21
-6 59 c-3 32 -7 77 -7 100 -1 23 -3 34 -6 25 -3 -14 -32 -22 -149 -43 -13 -3
-21 1 -21 10 0 10 4 11 14 3 17 -14 17 2 1 20 -10 11 -10 13 0 7 14 -9 16 6 2
20 -6 6 -2 10 12 11 18 2 20 0 8 -7 -12 -8 -12 -10 -1 -10 10 0 11 -3 2 -14
-8 -10 -9 -16 -1 -21 5 -3 11 -4 11 -1 1 3 2 9 3 14 1 4 5 12 9 19 4 6 3 14
-2 18 -6 3 -8 12 -5 20 4 8 10 12 15 9 5 -3 6 3 2 12 -4 12 -3 15 6 10 6 -4
11 -4 10 1 -3 14 13 43 21 38 4 -2 5 8 3 23 -3 25 -3 26 6 5 12 -26 24 -31 14
-6 -5 12 -3 14 8 8 11 -7 11 -5 -1 10 -9 11 -10 16 -2 11 7 -4 13 -2 14 6 1 7
5 -23 8 -67 l6 -80 2 88 c1 48 1 87 0 86 -2 -1 -46 -20 -98 -44z"/>
</g>
</svg>
