<?xml version="1.0" standalone="no"?>
<!DOCTYPE svg PUBLIC "-//W3C//DTD SVG 20010904//EN"
 "http://www.w3.org/TR/2001/REC-SVG-20010904/DTD/svg10.dtd">
<svg version="1.0" xmlns="http://www.w3.org/2000/svg"
 width="1000.000000pt" height="750.000000pt" viewBox="0 0 1000.000000 750.000000"
 preserveAspectRatio="xMidYMid meet">

<g transform="translate(0.000000,750.000000) scale(0.100000,-0.100000)"
fill="#000000" stroke="none">
<path d="M4978 6043 c-64 -137 -204 -319 -398 -513 -231 -232 -430 -382 -810
-610 -410 -246 -614 -401 -766 -581 -215 -254 -304 -495 -304 -826 0 -461 152
-863 426 -1123 280 -266 649 -359 1011 -254 297 86 561 301 745 608 l48 79 0
-49 c0 -63 -25 -283 -45 -399 -61 -356 -176 -621 -320 -735 -19 -15 -64 -40
-100 -55 -90 -39 -98 -68 -26 -105 117 -59 312 -85 646 -84 348 0 531 21 571
65 24 26 10 52 -49 91 -208 139 -381 447 -475 848 -29 123 -61 403 -45 385 5
-5 35 -48 65 -95 132 -201 307 -359 510 -459 561 -276 1189 -56 1473 517 112
226 165 473 165 765 0 207 -36 367 -121 536 -135 270 -352 475 -806 761 -431
272 -560 365 -793 575 -263 236 -515 541 -564 682 l-12 34 -26 -58z m-388
-2283 l0 -520 -75 0 -75 0 0 520 0 520 75 0 75 0 0 -520z m330 0 l0 -520 -80
0 -80 0 0 520 0 520 80 0 80 0 0 -520z m340 0 l0 -520 -80 0 -80 0 0 520 0
520 80 0 80 0 0 -520z m320 0 l0 -520 -80 0 -80 0 0 513 c0 283 3 517 7 520 3
4 39 7 80 7 l73 0 0 -520z"/>
</g>
</svg>
